<?xml version="1.0" encoding="UTF-8" standalone="no"?>
<!-- Created with Inkscape (http://www.inkscape.org/) -->

<svg
   xmlns:dc="http://purl.org/dc/elements/1.1/"
   xmlns:cc="http://creativecommons.org/ns#"
   xmlns:rdf="http://www.w3.org/1999/02/22-rdf-syntax-ns#"
   xmlns:svg="http://www.w3.org/2000/svg"
   xmlns="http://www.w3.org/2000/svg"
   xmlns:sodipodi="http://sodipodi.sourceforge.net/DTD/sodipodi-0.dtd"
   xmlns:inkscape="http://www.inkscape.org/namespaces/inkscape"
   width="53.909492mm"
   height="34.001289mm"
   viewBox="0 0 53.909491 34.001285"
   version="1.1"
   id="svg4675"
   inkscape:version="0.92.4 (5da689c313, 2019-01-14)"
   sodipodi:docname="small_intestine.svg">
  <defs
     id="defs4669" />
  <sodipodi:namedview
     id="base"
     pagecolor="#ffffff"
     bordercolor="#666666"
     borderopacity="1.0"
     inkscape:pageopacity="0.0"
     inkscape:pageshadow="2"
     inkscape:zoom="0.98994949"
     inkscape:cx="101.87621"
     inkscape:cy="64.254397"
     inkscape:document-units="mm"
     inkscape:current-layer="g4837"
     showgrid="false"
     inkscape:window-width="1920"
     inkscape:window-height="1017"
     inkscape:window-x="-8"
     inkscape:window-y="-8"
     inkscape:window-maximized="1" />
  <metadata
     id="metadata4672">
    <rdf:RDF>
      <cc:Work
         rdf:about="">
        <dc:format>image/svg+xml</dc:format>
        <dc:type
           rdf:resource="http://purl.org/dc/dcmitype/StillImage" />
        <dc:title></dc:title>
      </cc:Work>
    </rdf:RDF>
  </metadata>
  <g
     inkscape:label="Vrstva 1"
     inkscape:groupmode="layer"
     id="layer1"
     transform="translate(-58.906193,-391.25233)">
    <g
       transform="translate(-654.84498,311.53972)"
       id="g4837">
      <path
         style="fill:none;stroke:#ffb380;stroke-width:5;stroke-linecap:butt;stroke-linejoin:miter;stroke-miterlimit:4;stroke-dasharray:none;stroke-opacity:1"
         d="m 717.90609,80.190875 c -0.97661,5.01066 -1.99037,10.14747 0.60453,12.58259 1.79127,1.68097 6.07038,2.41475 6.50463,-0.78276 0.43426,-3.19751 -1.29081,-5.77673 1.44441,-5.97024 2.23803,-0.15834 5.59779,1.95605 5.36378,4.13935 -0.1593,1.48624 -2.47609,3.15175 -1.08659,4.2434 2.08915,1.64131 5.17094,1.48045 6.85707,0.55943 1.75809,-0.96033 -0.68062,-4.2774 -0.47755,-6.14979 0.18001,-1.65972 6.61453,-1.34259 7.90321,-2.02605 1.96225,-1.04071 2.59459,-0.1393 2.61285,2.34247 0.0148,2.01494 -2.31316,3.886 0.84145,4.11745 8.36512,0.61374 4.23597,-5.09878 4.71001,-7.02136 0.47019,-1.90699 6.4237,-1.35914 8.33158,-1.31607 1.80147,0.0407 3.44388,-0.0137 3.63614,1.32264 0.29574,2.05573 -4.2748,2.91358 -4.96849,4.96117 -0.50141,1.48006 1.32827,2.79479 2.20616,4.21096 1.47037,2.37194 1.10052,5.508465 -1.81003,6.628225 -1.63577,0.62932 -3.89161,-3.632175 -5.695,-3.679075 -2.42597,-0.0631 -1.26354,5.667275 -2.65595,6.968575 -2.39257,2.23602 -5.32903,-8.342025 -7.07572,-6.863025 -1.72707,1.4624 -0.61365,5.175725 -0.96172,7.218125 0.26076,3.0097 -10.94922,2.63059 -8.19396,1.14233 2.54504,-1.5665 3.6307,-4.27598 2.14421,-5.77711 -1.57456,-1.590045 -3.71484,0.75567 -5.62481,0.40672 -1.39032,-0.25402 -8.15138,-2.500175 -8.93313,-1.20733 -1.05866,1.7508 0.30577,4.27521 2.05218,5.49294 1.43265,0.99896 5.21251,2.24598 3.77234,3.26745 -6.29321,4.46358 -15.11285,1.33256 -12.90367,-2.2792"
         id="path5027"
         inkscape:connector-curvature="0"
         sodipodi:nodetypes="csssssssssssssssssssccsssssc" />
    </g>
  </g>
</svg>
